<?xml version="1.0" encoding="UTF-8" standalone="no"?>
<svg
   xmlns:dc="http://purl.org/dc/elements/1.1/"
   xmlns:cc="http://creativecommons.org/ns#"
   xmlns:rdf="http://www.w3.org/1999/02/22-rdf-syntax-ns#"
   xmlns:svg="http://www.w3.org/2000/svg"
   xmlns="http://www.w3.org/2000/svg"
   viewBox="0 0 694.73334 184.60001"
   height="184.60001"
   width="694.73334"
   xml:space="preserve"
   id="svg2"
   version="1.1"><metadata
     id="metadata8"><rdf:RDF><cc:Work
         rdf:about=""><dc:format>image/svg+xml</dc:format><dc:type
           rdf:resource="http://purl.org/dc/dcmitype/StillImage" /></cc:Work></rdf:RDF></metadata><defs
     id="defs6"><clipPath
       id="clipPath112"
       clipPathUnits="userSpaceOnUse"><path
         id="path110"
         d="M 0,0 H 5210 V 1384 H 0 Z" /></clipPath><clipPath
       id="clipPath118"
       clipPathUnits="userSpaceOnUse"><path
         id="path116"
         d="m 968.344,926.813 c 1.597,21.316 5.621,49.652 10.609,70.429 7.348,30.508 12.555,48.508 26.007,81.808 8.5,21.09 22.64,48.04 34.39,67.51 10.88,18.09 27.92,40.63 40.81,57.36 10.57,13.71 26.49,30.6 39.26,42.3 31.06,28.47 37.77,33.7 62.69,51.07 15.64,10.88 37.55,23.93 54.56,32.54 36.37,18.4 61.99,26.65 63.07,26.99 7.85,2.5 18.24,6.25 26.24,8.32 7.9,2.04 18.36,4.97 26.31,6.8 7.91,1.81 18.51,3.87 26.48,5.33 7.44,1.37 17.42,2.93 24.95,3.68 26.49,2.65 30.57,3.05 46.32,3.43 13.24,0.32 30.91,0.01 44.14,-0.81 15.18,-0.93 18.37,-1.36 43.25,-4.62 11.89,-1.57 21.83,-3.77 43.61,-8.63 6.93,-1.54 16.03,-4.28 22.89,-6.18 13.25,-3.66 15.16,-4.39 47.15,-16.56 7.1,-2.69 16.31,-6.99 23.22,-10.17 30.31,-13.98 58.52,-32.46 59.72,-33.24 7.62,-5.02 17.77,-11.82 25,-17.41 11.66,-9.01 26.92,-21.4 37.93,-31.2 15.44,-13.71 33.86,-34.3 47.63,-49.69 45.57,-54.63 69.02,-128.62 62.2,-215.823 -17.69,-225.137 -230.6,-453.219 -475.56,-509.469 244.96,56.25 457.87,284.332 475.56,509.469 6.82,87.203 -16.63,161.193 -62.2,215.823 10.03,-12.45 22.81,-29.54 31.9,-42.68 6.28,-9.08 13.57,-21.89 19.28,-31.33 9.35,-15.47 19.24,-37.57 26.39,-54.17 6.82,-15.77 14.47,-37.47 18.82,-54.1 5.87,-22.55 12.61,-53.016 15.21,-76.176 1.93,-17.273 3.67,-40.453 3.46,-57.824 -0.26,-21.492 -1.24,-50.301 -5.02,-71.453 -4.13,-23.242 -10.09,-54.285 -17.21,-76.797 -13.59,-42.969 -27.86,-71.012 -31.91,-78.582 -10.14,-18.938 -24.25,-44.035 -37.05,-61.278 -6.53,-8.789 -15.02,-20.667 -22.17,-28.984 -11.31,-13.113 -27.03,-30.058 -39.25,-42.312 -14.48,-14.512 -35.74,-31.922 -52.43,-43.805 -10.9,-7.781 -25.87,-17.547 -37.3,-24.574 -8.05,-4.942 -19.23,-10.723 -27.54,-15.219 -0.29,-0.156 -33.29,-17.043 -63.07,-26.996 -7.82,-2.625 -18.24,-6.262 -26.23,-8.336 -7.9,-2.043 -18.38,-4.973 -26.33,-6.774 -7.88,-1.828 -18.5,-3.867 -26.47,-5.347 -7.43,-1.403 -17.41,-2.93 -24.93,-3.676 -13.86,-1.391 -32.36,-2.969 -46.26,-3.418 -14.43,-0.488 -37.57,-0.394 -65.88,2.633 -47.31,5.062 -84.03,16.332 -88.06,17.582 -20.09,6.309 -30.2,9.476 -47.15,16.543 -21.23,8.855 -31.88,14.094 -51.22,24.449 -9.77,5.219 -22.55,12.715 -31.7,18.973 -15.28,10.523 -35.29,25.101 -49.61,36.906 -3.23,2.66 -32.38,27.02 -60.96,61.391 -32.57,39.211 -50.46,72.476 -57.19,84.984 -8.49,15.797 -18.03,37.785 -24.852,54.375 -4.36,10.598 -8.875,25.207 -12.36,36.148 -5.269,16.512 -9.972,39.231 -13.285,56.258 -2.23,11.52 -3.973,27.121 -5.203,38.821 -1.445,13.652 -2.086,32.003 -2.184,45.738 -0.101,11.996 0.657,28.004 1.528,39.973 z" /></clipPath></defs><g
     transform="matrix(1.3333333,0,0,-1.3333333,0,184.6)"
     id="g10"><g
       transform="scale(0.1)"
       id="g12"><path
         id="path14"
         style="fill:#dce0df;fill-opacity:1;fill-rule:nonzero;stroke:none"
         d="M 0.0234375,45.3008 V 214.828 H 46.6016 L 87.543,95.5703 129.641,214.828 h 41.011 V 45.3008 h -32.55 V 173.148 L 96.793,56.6094 H 68.3164 L 27.707,174.879 V 45.3008 H 0.0234375" /><path
         id="path16"
         style="fill:#dce0df;fill-opacity:1;fill-rule:nonzero;stroke:none"
         d="M 205.051,45.3008 V 169.691 h 22.644 V 45.3008 Z m 0,147.0392 v 22.64 h 22.644 v -22.64 h -22.644" /><path
         id="path18"
         style="fill:#dce0df;fill-opacity:1;fill-rule:nonzero;stroke:none"
         d="M 263.492,45.3008 V 226.148 h 22.645 V 45.3008 h -22.645" /><path
         id="path20"
         style="fill:#dce0df;fill-opacity:1;fill-rule:nonzero;stroke:none"
         d="m 336.09,120.941 h 56.297 c 0,12.399 -2.485,21.27 -7.465,26.598 -4.977,5.332 -11.344,8 -19.098,8 -8.855,0 -15.769,-2.867 -20.742,-8.617 -4.98,-5.75 -7.977,-14.422 -8.992,-25.981 z m 78.312,-71.5621 c -15.32,-4.6094 -28.433,-6.918 -39.347,-6.918 -19.582,0 -34.977,6.5079 -46.203,19.5274 -11.215,13 -16.825,28.3633 -16.825,46.0707 0,11.679 2.477,22.781 7.43,33.32 4.953,10.531 11.441,18.351 19.453,23.48 8.008,5.102 17.438,7.661 28.278,7.661 14.554,0 26.167,-5.149 34.843,-15.45 8.668,-10.3 13.004,-25.718 13.004,-46.25 l -0.129,-6.871 h -79.922 c 1.246,-11.0076 3.653,-19.4685 7.235,-25.4295 3.578,-5.9687 8.34,-10.6093 14.285,-13.9414 5.945,-3.3164 13.508,-4.9765 22.684,-4.9765 4.66,0 9.308,0.4101 13.933,1.2265 4.621,0.8203 11.723,2.9805 21.281,6.4805 V 49.3789" /><path
         id="path22"
         style="fill:#dce0df;fill-opacity:1;fill-rule:nonzero;stroke:none"
         d="m 438.559,49.6992 v 20.75 c 14.734,-7.3398 27.55,-11 38.468,-11 6.407,0 11.766,1.7422 16.078,5.2696 4.317,3.5117 6.473,7.9023 6.473,13.1601 0,3.293 -1.078,6.5 -3.223,9.6328 -2.136,3.1289 -7.082,6.2969 -14.816,9.5 l -13.215,5.6173 c -10.179,4.191 -17.609,9.082 -22.285,14.66 -4.672,5.5 -7.008,12.25 -7.008,20.281 0,10 3.645,18.34 10.934,24.981 7.297,6.648 18.078,9.969 32.359,9.969 6.977,0 15.621,-0.95 25.899,-2.86 l 4.722,-0.922 v -18.859 c -12.703,3.769 -22.832,5.66 -30.379,5.66 -7.316,0 -12.785,-1.57 -16.398,-4.707 -3.625,-3.121 -5.438,-6.82 -5.438,-11.102 0,-3.359 1.235,-6.378 3.688,-9.039 2.379,-2.761 6.68,-5.461 12.895,-8.14 l 10.945,-4.582 c 14.656,-6.18 23.984,-12.289 27.976,-18.3284 3.993,-6.0312 5.993,-12.6093 5.993,-19.7109 0,-6.8008 -1.856,-13.0977 -5.563,-18.9102 -3.703,-5.8007 -9.168,-10.3476 -16.387,-13.6289 -7.218,-3.289 -15.261,-4.9297 -24.125,-4.9297 -10.316,0 -22.839,2.418 -37.593,7.2383" /><path
         id="path24"
         style="fill:#dce0df;fill-opacity:1;fill-rule:nonzero;stroke:none"
         d="m 608.867,45.3008 c -6.953,-1.9024 -12.992,-2.8399 -18.113,-2.8399 -11.164,0 -20.027,3.2305 -26.598,9.668 -6.574,6.4531 -9.859,15.6406 -9.859,27.5313 v 73.0508 h -15.57 v 16.98 h 15.57 v 22.649 l 22.644,2.172 v -24.821 h 32.555 v -16.98 H 576.941 V 83.8203 c 0,-8.6992 1.676,-14.9414 5.036,-18.7109 3.355,-3.7813 8.699,-5.6602 16.019,-5.6602 2.977,0 6.598,0.4727 10.871,1.4102 V 45.3008" /><path
         id="path26"
         style="fill:#dce0df;fill-opacity:1;fill-rule:nonzero;stroke:none"
         d="m 681.133,59.4492 c 11.215,0 19.918,4.1797 26.097,12.5391 6.176,8.3515 9.27,20.2109 9.27,35.5627 0,15.418 -3.109,27.277 -9.328,35.558 -6.219,8.282 -14.902,12.43 -26.039,12.43 -11.133,0 -19.793,-4.148 -25.977,-12.43 -6.179,-8.281 -9.265,-20.14 -9.265,-35.558 0,-15.3518 3.086,-27.2112 9.265,-35.5627 C 661.34,63.6289 670,59.4492 681.133,59.4492 Z m 0.062,-16.9883 c -11.816,0 -22.086,2.4297 -30.804,7.2774 -8.731,4.8515 -15.645,12.4922 -20.75,22.9219 -5.106,10.4296 -7.661,22.0507 -7.661,34.8908 0,12.07 2.321,23.269 6.973,33.629 4.652,10.351 11.414,18.16 20.289,23.441 8.883,5.27 19.528,7.899 31.953,7.899 11.809,0 22.098,-2.411 30.86,-7.211 8.761,-4.821 15.679,-12.469 20.75,-22.918 5.062,-10.469 7.601,-22.082 7.601,-34.84 0,-12.2229 -2.363,-23.5119 -7.09,-33.8713 -4.726,-10.3399 -11.492,-18.1406 -20.285,-23.3711 -8.808,-5.2305 -19.418,-7.8477 -31.836,-7.8477" /><path
         id="path28"
         style="fill:#dce0df;fill-opacity:1;fill-rule:nonzero;stroke:none"
         d="M 766.637,45.3008 V 169.691 h 22.644 v -23.32 c 5.723,8.34 12.391,14.777 19.977,19.328 7.597,4.539 15.472,6.821 23.64,6.821 10.536,0 19.079,-3.34 25.641,-10.032 6.563,-6.687 9.852,-15.937 9.852,-27.789 V 45.3008 h -22.649 v 82.0512 c 0,8.628 -0.762,14.32 -2.285,17.078 -1.523,2.742 -3.66,4.859 -6.406,6.34 -2.738,1.5 -5.668,2.25 -8.793,2.25 -5.567,0 -11.563,-1.719 -18,-5.168 -6.442,-3.422 -13.434,-10.77 -20.977,-21.993 V 45.3008 h -22.644" /><path
         id="path30"
         style="fill:#dce0df;fill-opacity:1;fill-rule:nonzero;stroke:none"
         d="m 917.031,120.941 h 56.297 c 0,12.399 -2.484,21.27 -7.465,26.598 -4.972,5.332 -11.343,8 -19.093,8 -8.856,0 -15.774,-2.867 -20.747,-8.617 -4.976,-5.75 -7.976,-14.422 -8.992,-25.981 z m 78.317,-71.5621 c -15.325,-4.6094 -28.438,-6.918 -39.352,-6.918 -19.574,0 -34.976,6.5079 -46.199,19.5274 -11.211,13 -16.828,28.3633 -16.828,46.0707 0,11.679 2.476,22.781 7.429,33.32 4.957,10.531 11.442,18.351 19.457,23.48 8.004,5.102 17.434,7.661 28.274,7.661 14.559,0 26.172,-5.149 34.844,-15.45 8.668,-10.3 13.004,-25.718 13.004,-46.25 l -0.125,-6.871 H 915.93 c 1.242,-11.0076 3.648,-19.4685 7.23,-25.4295 3.578,-5.9687 8.34,-10.6093 14.285,-13.9414 5.95,-3.3164 13.508,-4.9765 22.688,-4.9765 4.656,0 9.305,0.4101 13.93,1.2265 4.625,0.8203 11.722,2.9805 21.285,6.4805 V 49.3789" /><path
         id="path32"
         style="fill:#dce0df;fill-opacity:1;fill-rule:nonzero;stroke:none"
         d="m 1019.51,49.6992 v 20.75 c 14.73,-7.3398 27.55,-11 38.46,-11 6.41,0 11.78,1.7422 16.09,5.2696 4.31,3.5117 6.47,7.9023 6.47,13.1601 0,3.293 -1.08,6.5 -3.22,9.6328 -2.14,3.1289 -7.09,6.2969 -14.82,9.5 l -13.21,5.6173 c -10.19,4.191 -17.62,9.082 -22.29,14.66 -4.68,5.5 -7.01,12.25 -7.01,20.281 0,10 3.65,18.34 10.94,24.981 7.29,6.648 18.07,9.969 32.35,9.969 6.98,0 15.62,-0.95 25.9,-2.86 l 4.72,-0.922 v -18.859 c -12.7,3.769 -22.83,5.66 -30.38,5.66 -7.31,0 -12.78,-1.57 -16.4,-4.707 -3.62,-3.121 -5.43,-6.82 -5.43,-11.102 0,-3.359 1.23,-6.378 3.69,-9.039 2.38,-2.761 6.67,-5.461 12.89,-8.14 l 10.94,-4.582 c 14.66,-6.18 23.99,-12.289 27.99,-18.3284 3.99,-6.0312 5.98,-12.6093 5.98,-19.7109 0,-6.8008 -1.85,-13.0977 -5.56,-18.9102 -3.7,-5.8007 -9.17,-10.3476 -16.38,-13.6289 -7.23,-3.289 -15.27,-4.9297 -24.13,-4.9297 -10.32,0 -22.85,2.418 -37.59,7.2383" /><path
         id="path34"
         style="fill:#dce0df;fill-opacity:1;fill-rule:nonzero;stroke:none"
         d="m 1251.63,63.6914 c 9.67,0 16.95,4.2188 21.83,12.6367 4.87,8.4414 7.32,19.0508 7.32,31.8709 0,12.742 -2.45,23.34 -7.32,31.801 -4.88,8.469 -12.16,12.711 -21.83,12.711 -9.6,0 -16.85,-4.242 -21.72,-12.711 -4.88,-8.461 -7.32,-19.059 -7.32,-31.801 0,-12.8201 2.44,-23.4295 7.32,-31.8709 4.87,-8.4179 12.12,-12.6367 21.72,-12.6367 z m 0,-21.2305 c -13.62,0 -25.3,2.6602 -35.05,7.961 -9.75,5.3164 -17.19,13.1172 -22.32,23.4179 -5.12,10.3008 -7.68,21.7618 -7.68,34.3592 0,12.531 2.52,23.91 7.57,34.192 5.04,10.269 12.46,18.089 22.25,23.461 9.79,5.386 21.54,8.089 35.23,8.089 13.76,0 25.52,-2.703 35.27,-8.089 9.76,-5.372 17.18,-13.192 22.26,-23.461 5.09,-10.282 7.63,-21.661 7.63,-34.192 0,-12.5974 -2.56,-24.0584 -7.68,-34.3592 -5.13,-10.3007 -12.57,-18.1015 -22.32,-23.4179 -9.75,-5.3008 -21.47,-7.961 -35.16,-7.961" /><path
         id="path36"
         style="fill:#dce0df;fill-opacity:1;fill-rule:nonzero;stroke:none"
         d="M 1343.88,45.3008 V 152.711 h -17.62 v 16.98 h 17.62 v 14.879 c 0,10.219 1.32,18.258 3.96,24.102 2.63,5.828 6.95,10.68 12.95,14.527 6,3.852 13.84,5.781 23.55,5.781 7.65,0 16.28,-1.261 25.91,-3.769 v -17.93 c -10.18,3.141 -18.33,4.719 -24.44,4.719 -3.52,0 -6.74,-0.559 -9.65,-1.672 -2.91,-1.098 -5.24,-3.058 -6.99,-5.879 -1.76,-2.828 -2.64,-8.66 -2.64,-17.5 v -17.258 h 31.14 v -16.98 h -31.14 l -0.01,-107.4102 h -22.64" /><path
         id="path38"
         style="fill:#dce0df;fill-opacity:1;fill-rule:nonzero;stroke:none"
         d="M 1480.12,45.3008 V 214.828 h 31.37 L 1589.42,99.0195 V 214.828 h 28.31 V 45.3008 h -31.74 L 1508.43,161.102 V 45.3008 h -28.31" /><path
         id="path40"
         style="fill:#dce0df;fill-opacity:1;fill-rule:nonzero;stroke:none"
         d="m 1701.74,59.4492 c 11.21,0 19.91,4.1797 26.1,12.5391 6.18,8.3515 9.26,20.2109 9.26,35.5627 0,15.418 -3.1,27.277 -9.32,35.558 -6.23,8.282 -14.9,12.43 -26.04,12.43 -11.14,0 -19.8,-4.148 -25.98,-12.43 -6.18,-8.281 -9.27,-20.14 -9.27,-35.558 0,-15.3518 3.09,-27.2112 9.27,-35.5627 6.18,-8.3594 14.84,-12.5391 25.98,-12.5391 z m 0.06,-16.9883 c -11.81,0 -22.08,2.4297 -30.81,7.2774 -8.72,4.8515 -15.64,12.4922 -20.75,22.9219 -5.1,10.4296 -7.65,22.0507 -7.65,34.8908 0,12.07 2.32,23.269 6.97,33.629 4.64,10.351 11.41,18.16 20.29,23.441 8.88,5.27 19.53,7.899 31.95,7.899 11.81,0 22.09,-2.411 30.86,-7.211 8.76,-4.821 15.68,-12.469 20.74,-22.918 5.07,-10.469 7.61,-22.082 7.61,-34.84 0,-12.2229 -2.36,-23.5119 -7.09,-33.8713 -4.73,-10.3399 -11.49,-18.1406 -20.29,-23.3711 -8.8,-5.2305 -19.41,-7.8477 -31.83,-7.8477" /><path
         id="path42"
         style="fill:#dce0df;fill-opacity:1;fill-rule:nonzero;stroke:none"
         d="M 1787.25,45.3008 V 169.691 h 22.65 v -23.25 c 4.28,8.309 9.85,14.731 16.69,19.278 6.85,4.531 14.29,6.801 22.32,6.801 2.29,0 4.7,-0.211 7.22,-0.629 v -21.082 c -3.82,1.363 -7.26,2.05 -10.32,2.05 -7.11,0 -13.68,-2.121 -19.68,-6.359 -6.01,-4.238 -11.42,-10.609 -16.23,-19.09 V 45.3008 h -22.65" /><path
         id="path44"
         style="fill:#dce0df;fill-opacity:1;fill-rule:nonzero;stroke:none"
         d="M 1873.87,45.3008 V 169.691 h 22.65 v -23.23 c 4.57,7.25 10.43,13.41 17.56,18.469 7.12,5.05 15.38,7.59 24.75,7.59 5.41,0 10.14,-0.879 14.18,-2.622 4.04,-1.75 7.7,-4.226 10.97,-7.429 3.28,-3.188 6.22,-8.528 8.81,-16.008 4.58,7.48 10.4,13.73 17.47,18.719 7.05,5 15.14,7.5 24.22,7.5 8.85,0 16.83,-2.758 23.93,-8.258 7.11,-5.5 10.66,-15.024 10.66,-28.543 V 45.3008 h -22.65 V 132.32 c 0,8.262 -1.74,13.871 -5.22,16.852 -3.47,2.976 -7.35,4.476 -11.62,4.476 -5.35,0 -10.91,-1.668 -16.67,-5 -5.78,-3.328 -12.48,-9.976 -20.12,-19.91 V 45.3008 h -22.64 v 87.0582 c 0,8.34 -1.76,13.981 -5.26,16.973 -3.51,2.977 -7.47,4.469 -11.9,4.469 -5.41,0 -10.88,-1.653 -16.41,-4.961 -5.52,-3.309 -12.2,-10.02 -20.06,-20.102 V 45.3008 h -22.65" /><path
         id="path46"
         style="fill:#dce0df;fill-opacity:1;fill-rule:nonzero;stroke:none"
         d="m 2145.21,73.4414 v 32.1796 l -7.34,0.219 c -12.04,0 -22.13,-2.301 -30.29,-6.8791 -8.15,-4.6015 -12.23,-10.832 -12.23,-18.6992 0,-5.4414 2,-10.0312 6,-13.7734 4,-3.7578 8.67,-5.6289 14.03,-5.6289 4.82,0 9.71,1.0703 14.68,3.1797 4.97,2.1093 10.01,5.25 15.15,9.4023 z m 3.33,-12.2695 c -6.81,-6.2031 -13.51,-10.8633 -20.13,-14 -6.6,-3.1328 -13.08,-4.711 -19.42,-4.711 -8.88,0 -17.16,2.8985 -24.81,8.711 -7.65,5.7969 -11.47,14.2773 -11.47,25.4297 0,12.2265 5.33,22.3398 16,30.3204 10.67,7.988 27.73,11.969 51.16,11.969 h 5.34 v 15 c 0,5.961 -0.82,10.281 -2.45,13 -1.63,2.711 -4.17,4.828 -7.62,6.359 -3.46,1.52 -7.75,2.289 -12.87,2.289 -11.87,0 -24.82,-3.68 -38.87,-11.019 v 18.73 c 15.39,6.18 29.89,9.27 43.5,9.27 7.42,0 14.24,-1.161 20.48,-3.5 6.22,-2.321 11.19,-6 14.91,-10.989 3.7,-5.011 5.56,-13.043 5.56,-24.121 V 77.5508 c 0,-6.2695 0.5,-10.4922 1.5,-12.6524 1,-2.1875 2.39,-3.8476 4.2,-4.9882 1.81,-1.1485 3.89,-1.7188 6.28,-1.7188 1,0 2.45,0.1484 4.37,0.4688 l 1.58,-12.5196 c -5.13,-2.4492 -10.8,-3.6797 -17.02,-3.6797 -4.14,0 -8.12,1.3399 -11.95,4.0196 -3.83,2.6679 -6.59,7.5781 -8.27,14.6914" /><path
         id="path48"
         style="fill:#dce0df;fill-opacity:1;fill-rule:nonzero;stroke:none"
         d="M 2203.75,45.3008 V 226.148 h 22.65 V 45.3008 h -22.65" /><path
         id="path50"
         style="fill:#dce0df;fill-opacity:1;fill-rule:nonzero;stroke:none"
         d="m 2360.87,69.3594 h 26.36 c 13.76,0 24.29,2.1406 31.59,6.4023 7.3,4.2891 13.06,11.5078 17.31,21.6992 4.24,10.1991 6.36,21.5591 6.36,34.0901 0,11.98 -2.06,22.59 -6.19,31.828 -4.13,9.242 -9.84,16.23 -17.14,21.019 -7.29,4.762 -19.62,7.153 -36.97,7.153 h -21.32 z M 2325.64,45.3008 V 214.828 h 72.96 c 19.54,0 34.76,-3.137 45.64,-9.406 10.88,-6.262 19.55,-15.481 26,-27.652 6.45,-12.188 9.68,-26.911 9.68,-44.161 0,-16.879 -3.07,-31.961 -9.22,-45.2496 -6.15,-13.2891 -15.09,-23.7891 -26.85,-31.5 -11.77,-7.7188 -27.88,-11.5586 -48.34,-11.5586 h -69.87" /><path
         id="path52"
         style="fill:#dce0df;fill-opacity:1;fill-rule:nonzero;stroke:none"
         d="m 2517.9,120.941 h 56.3 c 0,12.399 -2.49,21.27 -7.47,26.598 -4.98,5.332 -11.34,8 -19.09,8 -8.87,0 -15.77,-2.867 -20.75,-8.617 -4.98,-5.75 -7.97,-14.422 -8.99,-25.981 z m 78.32,-71.5621 c -15.33,-4.6094 -28.45,-6.918 -39.36,-6.918 -19.58,0 -34.97,6.5079 -46.2,19.5274 -11.21,13 -16.82,28.3633 -16.82,46.0707 0,11.679 2.47,22.781 7.43,33.32 4.95,10.531 11.44,18.351 19.45,23.48 8.02,5.102 17.44,7.661 28.28,7.661 14.56,0 26.16,-5.149 34.84,-15.45 8.67,-10.3 13.01,-25.718 13.01,-46.25 l -0.14,-6.871 h -79.91 c 1.23,-11.0076 3.65,-19.4685 7.23,-25.4295 3.58,-5.9687 8.34,-10.6093 14.29,-13.9414 5.94,-3.3164 13.5,-4.9765 22.68,-4.9765 4.66,0 9.31,0.4101 13.93,1.2265 4.63,0.8203 11.73,2.9805 21.29,6.4805 V 49.3789" /><path
         id="path54"
         style="fill:#dce0df;fill-opacity:1;fill-rule:nonzero;stroke:none"
         d="m 2650.89,45.3008 -46.32,124.3902 h 22.76 l 36.04,-96.7222 38.18,96.7222 h 21.12 L 2673.61,45.3008 h -22.72" /><path
         id="path56"
         style="fill:#dce0df;fill-opacity:1;fill-rule:nonzero;stroke:none"
         d="m 2751.31,120.941 h 56.3 c 0,12.399 -2.49,21.27 -7.46,26.598 -4.99,5.332 -11.35,8 -19.11,8 -8.85,0 -15.76,-2.867 -20.74,-8.617 -4.97,-5.75 -7.98,-14.422 -8.99,-25.981 z m 78.31,-71.5621 c -15.32,-4.6094 -28.43,-6.918 -39.34,-6.918 -19.58,0 -34.98,6.5079 -46.2,19.5274 -11.22,13 -16.83,28.3633 -16.83,46.0707 0,11.679 2.47,22.781 7.43,33.32 4.95,10.531 11.44,18.351 19.45,23.48 8.01,5.102 17.44,7.661 28.28,7.661 14.56,0 26.17,-5.149 34.84,-15.45 8.67,-10.3 13.01,-25.718 13.01,-46.25 l -0.13,-6.871 h -79.92 c 1.25,-11.0076 3.64,-19.4685 7.23,-25.4295 3.57,-5.9687 8.34,-10.6093 14.28,-13.9414 5.95,-3.3164 13.51,-4.9765 22.69,-4.9765 4.66,0 9.31,0.4101 13.93,1.2265 4.62,0.8203 11.72,2.9805 21.28,6.4805 V 49.3789" /><path
         id="path58"
         style="fill:#dce0df;fill-opacity:1;fill-rule:nonzero;stroke:none"
         d="M 2858.49,45.3008 V 226.148 h 22.65 V 45.3008 h -22.65" /><path
         id="path60"
         style="fill:#dce0df;fill-opacity:1;fill-rule:nonzero;stroke:none"
         d="m 2966.18,59.4492 c 11.22,0 19.92,4.1797 26.1,12.5391 6.18,8.3515 9.27,20.2109 9.27,35.5627 0,15.418 -3.11,27.277 -9.33,35.558 -6.23,8.282 -14.9,12.43 -26.04,12.43 -11.14,0 -19.8,-4.148 -25.98,-12.43 -6.18,-8.281 -9.27,-20.14 -9.27,-35.558 0,-15.3518 3.09,-27.2112 9.27,-35.5627 6.18,-8.3594 14.84,-12.5391 25.98,-12.5391 z m 0.06,-16.9883 c -11.81,0 -22.07,2.4297 -30.81,7.2774 -8.73,4.8515 -15.64,12.4922 -20.75,22.9219 -5.1,10.4296 -7.65,22.0507 -7.65,34.8908 0,12.07 2.32,23.269 6.97,33.629 4.65,10.351 11.41,18.16 20.29,23.441 8.88,5.27 19.52,7.899 31.95,7.899 11.81,0 22.09,-2.411 30.86,-7.211 8.76,-4.821 15.68,-12.469 20.74,-22.918 5.08,-10.469 7.61,-22.082 7.61,-34.84 0,-12.2229 -2.36,-23.5119 -7.09,-33.8713 -4.72,-10.3399 -11.49,-18.1406 -20.29,-23.3711 -8.8,-5.2305 -19.4,-7.8477 -31.83,-7.8477" /><path
         id="path62"
         style="fill:#dce0df;fill-opacity:1;fill-rule:nonzero;stroke:none"
         d="m 3074.34,75.0313 c 7.62,-6.8711 13.69,-11.1915 18.22,-12.9532 4.52,-1.75 9.39,-2.6289 14.58,-2.6289 10.95,0 19.04,4.6524 24.29,13.9727 5.24,9.3281 7.86,21.207 7.86,35.6561 0,13.453 -2.32,24.113 -6.96,31.981 -4.64,7.871 -11.83,11.8 -21.55,11.8 -6.19,0 -12.32,-1.687 -18.39,-5.097 -6.08,-3.403 -12.09,-8.543 -18.05,-15.422 z M 3051.69,0 v 169.691 h 22.65 v -23.25 c 4.61,8.688 10.33,15.207 17.17,19.559 6.83,4.34 14.83,6.52 23.97,6.52 15.18,0 26.94,-5.649 35.25,-16.961 8.31,-11.309 12.46,-26.059 12.46,-44.239 0,-11.8317 -1.93,-23.1012 -5.77,-33.8005 -3.86,-10.6875 -9.85,-19.2187 -17.97,-25.539 -8.13,-6.3516 -17.33,-9.5196 -27.59,-9.5196 -4.08,0 -9.47,0.6094 -16.15,1.8399 -6.7,1.2187 -13.82,6.2695 -21.37,15.1484 V 0 h -22.65" /><path
         id="path64"
         style="fill:#dce0df;fill-opacity:1;fill-rule:nonzero;stroke:none"
         d="M 3189.99,45.3008 V 169.691 h 22.64 v -23.23 c 4.57,7.25 10.42,13.41 17.56,18.469 7.12,5.05 15.37,7.59 24.75,7.59 5.42,0 10.14,-0.879 14.18,-2.622 4.04,-1.75 7.7,-4.226 10.98,-7.429 3.28,-3.188 6.21,-8.528 8.8,-16.008 4.58,7.48 10.4,13.73 17.47,18.719 7.06,5 15.14,7.5 24.22,7.5 8.86,0 16.84,-2.758 23.94,-8.258 7.1,-5.5 10.65,-15.024 10.65,-28.543 V 45.3008 h -22.65 V 132.32 c 0,8.262 -1.73,13.871 -5.21,16.852 -3.48,2.976 -7.35,4.476 -11.63,4.476 -5.35,0 -10.9,-1.668 -16.67,-5 -5.77,-3.328 -12.47,-9.976 -20.12,-19.91 V 45.3008 h -22.65 l 0.01,87.0582 c 0,8.34 -1.75,13.981 -5.26,16.973 -3.5,2.977 -7.47,4.469 -11.89,4.469 -5.41,0 -10.88,-1.653 -16.41,-4.961 -5.53,-3.309 -12.22,-10.02 -20.07,-20.102 V 45.3008 h -22.64" /><path
         id="path66"
         style="fill:#dce0df;fill-opacity:1;fill-rule:nonzero;stroke:none"
         d="m 3413.82,120.941 h 56.3 c 0,12.399 -2.48,21.27 -7.46,26.598 -4.98,5.332 -11.34,8 -19.1,8 -8.85,0 -15.77,-2.867 -20.74,-8.617 -4.97,-5.75 -7.98,-14.422 -9,-25.981 z m 78.32,-71.5621 c -15.32,-4.6094 -28.43,-6.918 -39.34,-6.918 -19.58,0 -34.98,6.5079 -46.21,19.5274 -11.21,13 -16.83,28.3633 -16.83,46.0707 0,11.679 2.48,22.781 7.43,33.32 4.95,10.531 11.45,18.351 19.46,23.48 8,5.102 17.43,7.661 28.28,7.661 14.55,0 26.17,-5.149 34.84,-15.45 8.66,-10.3 13,-25.718 13,-46.25 l -0.13,-6.871 h -79.92 c 1.25,-11.0076 3.65,-19.4685 7.23,-25.4295 3.57,-5.9687 8.34,-10.6093 14.28,-13.9414 5.95,-3.3164 13.51,-4.9765 22.69,-4.9765 4.67,0 9.32,0.4101 13.94,1.2265 4.62,0.8203 11.71,2.9805 21.28,6.4805 V 49.3789" /><path
         id="path68"
         style="fill:#dce0df;fill-opacity:1;fill-rule:nonzero;stroke:none"
         d="M 3521.02,45.3008 V 169.691 h 22.65 v -23.32 c 5.71,8.34 12.38,14.777 19.97,19.328 7.6,4.539 15.48,6.821 23.63,6.821 10.54,0 19.09,-3.34 25.65,-10.032 6.57,-6.687 9.85,-15.937 9.85,-27.789 V 45.3008 h -22.65 v 82.0512 c 0,8.628 -0.76,14.32 -2.29,17.078 -1.52,2.742 -3.66,4.859 -6.4,6.34 -2.74,1.5 -5.66,2.25 -8.8,2.25 -5.55,0 -11.55,-1.719 -18,-5.168 -6.43,-3.422 -13.42,-10.77 -20.96,-21.993 V 45.3008 h -22.65" /><path
         id="path70"
         style="fill:#dce0df;fill-opacity:1;fill-rule:nonzero;stroke:none"
         d="m 3712.61,45.3008 c -6.95,-1.9024 -12.99,-2.8399 -18.11,-2.8399 -11.16,0 -20.02,3.2305 -26.59,9.668 -6.59,6.4531 -9.87,15.6406 -9.87,27.5313 v 73.0508 h -15.56 v 16.98 h 15.56 v 22.649 l 22.65,2.172 v -24.821 h 32.56 v -16.98 h -32.56 V 83.8203 c 0,-8.6992 1.68,-14.9414 5.03,-18.7109 3.37,-3.7813 8.7,-5.6602 16.02,-5.6602 2.97,0 6.59,0.4727 10.87,1.4102 V 45.3008" /><path
         id="path72"
         style="fill:#dce0df;fill-opacity:1;fill-rule:nonzero;stroke:none"
         d="M 3800.49,45.3008 V 169.691 h 22.65 V 45.3008 Z m 0,147.0392 v 22.64 h 22.65 v -22.64 h -22.65" /><path
         id="path74"
         style="fill:#dce0df;fill-opacity:1;fill-rule:nonzero;stroke:none"
         d="M 3858.94,45.3008 V 169.691 h 22.65 v -23.32 c 5.72,8.34 12.38,14.777 19.97,19.328 7.6,4.539 15.48,6.821 23.64,6.821 10.54,0 19.08,-3.34 25.64,-10.032 6.57,-6.687 9.85,-15.937 9.85,-27.789 V 45.3008 h -22.65 v 82.0512 c 0,8.628 -0.75,14.32 -2.28,17.078 -1.52,2.742 -3.67,4.859 -6.41,6.34 -2.74,1.5 -5.66,2.25 -8.8,2.25 -5.55,0 -11.55,-1.719 -17.99,-5.168 -6.44,-3.422 -13.43,-10.77 -20.97,-21.993 V 45.3008 h -22.65" /><path
         id="path76"
         style="fill:#dce0df;fill-opacity:1;fill-rule:nonzero;stroke:none"
         d="M 4058.63,45.3008 V 214.828 h 108.66 v -23.437 h -73.44 v -47.02 h 60.71 v -23.43 h -60.71 V 69.3594 h 78.79 V 45.3008 h -114.01" /><path
         id="path78"
         style="fill:#dce0df;fill-opacity:1;fill-rule:nonzero;stroke:none"
         d="m 4253.23,73.4414 v 32.1796 l -7.34,0.219 c -12.04,0 -22.13,-2.301 -30.29,-6.8791 -8.14,-4.6015 -12.23,-10.832 -12.23,-18.6992 0,-5.4414 2.01,-10.0312 6,-13.7734 4,-3.7578 8.68,-5.6289 14.03,-5.6289 4.83,0 9.72,1.0703 14.68,3.1797 4.97,2.1093 10.02,5.25 15.15,9.4023 z m 3.33,-12.2695 c -6.8,-6.2031 -13.51,-10.8633 -20.12,-14 -6.6,-3.1328 -13.09,-4.711 -19.42,-4.711 -8.89,0 -17.16,2.8985 -24.81,8.711 -7.65,5.7969 -11.48,14.2773 -11.48,25.4297 0,12.2265 5.34,22.3398 16,30.3204 10.68,7.988 27.73,11.969 51.17,11.969 h 5.33 v 15 c 0,5.961 -0.81,10.281 -2.44,13 -1.62,2.711 -4.17,4.828 -7.62,6.359 -3.47,1.52 -7.75,2.289 -12.87,2.289 -11.88,0 -24.83,-3.68 -38.88,-11.019 v 18.73 c 15.4,6.18 29.89,9.27 43.51,9.27 7.42,0 14.24,-1.161 20.48,-3.5 6.22,-2.321 11.19,-6 14.9,-10.989 3.71,-5.011 5.56,-13.043 5.56,-24.121 V 77.5508 c 0,-6.2695 0.5,-10.4922 1.5,-12.6524 1,-2.1875 2.4,-3.8476 4.21,-4.9882 1.8,-1.1485 3.88,-1.7188 6.28,-1.7188 0.99,0 2.45,0.1484 4.37,0.4688 l 1.57,-12.5196 c -5.12,-2.4492 -10.8,-3.6797 -17.01,-3.6797 -4.14,0 -8.12,1.3399 -11.95,4.0196 -3.84,2.6679 -6.59,7.5781 -8.28,14.6914" /><path
         id="path80"
         style="fill:#dce0df;fill-opacity:1;fill-rule:nonzero;stroke:none"
         d="M 4311.78,45.3008 V 169.691 h 22.65 v -23.25 c 4.29,8.309 9.84,14.731 16.69,19.278 6.84,4.531 14.28,6.801 22.32,6.801 2.29,0 4.7,-0.211 7.22,-0.629 v -21.082 c -3.82,1.363 -7.26,2.05 -10.32,2.05 -7.11,0 -13.67,-2.121 -19.69,-6.359 -6,-4.238 -11.41,-10.609 -16.22,-19.09 V 45.3008 h -22.65" /><path
         id="path82"
         style="fill:#dce0df;fill-opacity:1;fill-rule:nonzero;stroke:none"
         d="M 4398.4,45.3008 V 226.148 h 22.65 V 45.3008 h -22.65" /><path
         id="path84"
         style="fill:#dce0df;fill-opacity:1;fill-rule:nonzero;stroke:none"
         d="m 4464,0 20.12,45.3984 -48.11,124.2926 h 24.3 l 35.67,-93.5191 38.12,93.5191 h 21.28 L 4487.49,0 H 4464" /><path
         id="path86"
         style="fill:#dce0df;fill-opacity:1;fill-rule:nonzero;stroke:none"
         d="M 4675.83,45.3008 V 116.32 l -56.93,98.508 h 39.02 l 41.37,-71.578 43.17,71.578 h 27.89 l -59.3,-98.277 V 45.3008 h -35.22" /><path
         id="path88"
         style="fill:#dce0df;fill-opacity:1;fill-rule:nonzero;stroke:none"
         d="m 4802.84,120.941 h 56.3 c 0,12.399 -2.48,21.27 -7.47,26.598 -4.98,5.332 -11.33,8 -19.1,8 -8.84,0 -15.77,-2.867 -20.74,-8.617 -4.97,-5.75 -7.98,-14.422 -8.99,-25.981 z m 78.32,-71.5621 c -15.33,-4.6094 -28.44,-6.918 -39.35,-6.918 -19.58,0 -34.98,6.5079 -46.21,19.5274 -11.21,13 -16.83,28.3633 -16.83,46.0707 0,11.679 2.48,22.781 7.44,33.32 4.95,10.531 11.44,18.351 19.45,23.48 8.01,5.102 17.43,7.661 28.28,7.661 14.55,0 26.17,-5.149 34.84,-15.45 8.67,-10.3 13,-25.718 13,-46.25 l -0.12,-6.871 h -79.93 c 1.25,-11.0076 3.66,-19.4685 7.23,-25.4295 3.57,-5.9687 8.35,-10.6093 14.29,-13.9414 5.94,-3.3164 13.5,-4.9765 22.69,-4.9765 4.66,0 9.31,0.4101 13.94,1.2265 4.62,0.8203 11.71,2.9805 21.28,6.4805 V 49.3789" /><path
         id="path90"
         style="fill:#dce0df;fill-opacity:1;fill-rule:nonzero;stroke:none"
         d="m 4971.68,73.4414 v 32.1796 l -7.34,0.219 c -12.03,0 -22.13,-2.301 -30.28,-6.8791 -8.16,-4.6015 -12.23,-10.832 -12.23,-18.6992 0,-5.4414 1.99,-10.0312 6,-13.7734 3.99,-3.7578 8.67,-5.6289 14.03,-5.6289 4.81,0 9.71,1.0703 14.67,3.1797 4.98,2.1093 10.03,5.25 15.15,9.4023 z m 3.33,-12.2695 c -6.8,-6.2031 -13.5,-10.8633 -20.12,-14 -6.6,-3.1328 -13.08,-4.711 -19.41,-4.711 -8.89,0 -17.17,2.8985 -24.82,8.711 -7.66,5.7969 -11.48,14.2773 -11.48,25.4297 0,12.2265 5.34,22.3398 16.01,30.3204 10.66,7.988 27.73,11.969 51.15,11.969 h 5.34 v 15 c 0,5.961 -0.82,10.281 -2.45,13 -1.63,2.711 -4.17,4.828 -7.61,6.359 -3.46,1.52 -7.75,2.289 -12.87,2.289 -11.87,0 -24.83,-3.68 -38.87,-11.019 v 18.73 c 15.39,6.18 29.88,9.27 43.49,9.27 7.43,0 14.25,-1.161 20.48,-3.5 6.22,-2.321 11.19,-6 14.9,-10.989 3.72,-5.011 5.57,-13.043 5.57,-24.121 V 77.5508 c 0,-6.2695 0.51,-10.4922 1.5,-12.6524 1,-2.1875 2.41,-3.8476 4.2,-4.9882 1.8,-1.1485 3.91,-1.7188 6.28,-1.7188 1,0 2.46,0.1484 4.38,0.4688 l 1.57,-12.5196 c -5.14,-2.4492 -10.8,-3.6797 -17.01,-3.6797 -4.14,0 -8.12,1.3399 -11.95,4.0196 -3.83,2.6679 -6.59,7.5781 -8.28,14.6914" /><path
         id="path92"
         style="fill:#dce0df;fill-opacity:1;fill-rule:nonzero;stroke:none"
         d="M 5030.23,45.3008 V 169.691 h 22.65 v -23.25 c 4.28,8.309 9.85,14.731 16.69,19.278 6.85,4.531 14.29,6.801 22.32,6.801 2.28,0 4.7,-0.211 7.23,-0.629 v -21.082 c -3.83,1.363 -7.27,2.05 -10.33,2.05 -7.12,0 -13.68,-2.121 -19.67,-6.359 -6.02,-4.238 -11.43,-10.609 -16.24,-19.09 V 45.3008 h -22.65" /><path
         id="path94"
         style="fill:#dce0df;fill-opacity:1;fill-rule:nonzero;stroke:none"
         d="m 5112.13,49.6992 v 20.75 c 14.74,-7.3398 27.55,-11 38.47,-11 6.41,0 11.77,1.7422 16.08,5.2696 4.32,3.5117 6.47,7.9023 6.47,13.1601 0,3.293 -1.07,6.5 -3.21,9.6328 -2.14,3.1289 -7.08,6.2969 -14.82,9.5 l -13.21,5.6173 c -10.2,4.191 -17.63,9.082 -22.3,14.66 -4.67,5.5 -7,12.25 -7,20.281 0,10 3.64,18.34 10.94,24.981 7.29,6.648 18.08,9.969 32.34,9.969 7,0 15.62,-0.95 25.91,-2.86 l 4.72,-0.922 v -18.859 c -12.71,3.769 -22.83,5.66 -30.38,5.66 -7.31,0 -12.78,-1.57 -16.41,-4.707 -3.61,-3.121 -5.42,-6.82 -5.42,-11.102 0,-3.359 1.23,-6.378 3.68,-9.039 2.39,-2.761 6.68,-5.461 12.9,-8.14 l 10.94,-4.582 c 14.66,-6.18 24,-12.289 27.98,-18.3284 3.99,-6.0312 6,-12.6093 6,-19.7109 0,-6.8008 -1.87,-13.0977 -5.56,-18.9102 -3.72,-5.8007 -9.18,-10.3476 -16.4,-13.6289 -7.21,-3.289 -15.26,-4.9297 -24.12,-4.9297 -10.32,0 -22.85,2.418 -37.6,7.2383" /><path
         id="path96"
         style="fill:#dce0df;fill-opacity:1;fill-rule:nonzero;stroke:none"
         d="m 0,410.59 v 932.77 H 182.645 L 441.762,621.254 707.867,1343.36 H 872.32 V 410.59 H 748.063 v 758.16 L 490.898,472.719 H 362.945 L 113.34,1170.11 V 410.59 H 0" /><path
         id="path98"
         style="fill:#dce0df;fill-opacity:1;fill-rule:nonzero;stroke:none"
         d="m 2060.55,410.59 v 932.77 h 129.84 l 469.62,-719.899 v 719.899 h 113.35 V 410.59 h -129.2 l -470.27,719.74 V 410.59 h -113.34" /><path
         id="path100"
         style="fill:#dce0df;fill-opacity:1;fill-rule:nonzero;stroke:none"
         d="m 3055.89,509.66 h 169.53 c 120.99,0 206.69,32.551 257.13,97.656 54.18,69.297 81.29,162.336 81.29,279.102 0,109.629 -26.69,195.742 -80.04,258.322 -32.34,38.22 -71,64.37 -115.96,78.44 -44.95,14.06 -112.6,21.11 -202.92,21.11 h -109.03 z m -132.64,-99.07 v 932.77 h 310.05 c 92.43,0 167.1,-10.29 224.03,-30.88 56.92,-20.6 106.18,-55.46 147.78,-104.62 65.96,-78.16 98.94,-181.1 98.94,-308.825 0,-144.109 -38.66,-260.937 -115.96,-350.418 -42.01,-49.179 -90.64,-84.465 -145.88,-105.879 -55.25,-21.437 -124.26,-32.148 -207.03,-32.148 h -311.93" /><path
         id="path102"
         style="fill:#dce0df;fill-opacity:1;fill-rule:nonzero;stroke:none"
         d="m 3826.06,410.59 v 932.77 h 521.14 v -99.07 H 3958.72 V 945.402 h 325.47 v -97.39 H 3958.72 V 509.66 h 415.58 v -99.07 h -548.24" /><path
         id="path104"
         style="fill:#dce0df;fill-opacity:1;fill-rule:nonzero;stroke:none"
         d="M 4744.51,410.59 V 800.082 L 4433.02,1343.36 H 4584 l 242.5,-421.715 260.69,421.715 h 123.28 L 4877.16,802.609 V 410.59 h -132.65" /><g
         id="g106"><g
           clip-path="url(#clipPath112)"
           id="g108"><g
             clip-path="url(#clipPath118)"
             id="g114"><path
               id="path120"
               style="fill:#1a1941;fill-opacity:1;fill-rule:nonzero;stroke:none"
               d="m 968.344,926.813 c -19.285,-259.661 151.736,-419.84 255.816,-473.567 48.19,-24.859 80.26,-38.281 142.97,-51.969 37.84,-8.254 94.69,-11.738 132.24,-8.109 40.68,3.945 164.52,15.937 281.98,114.023 71.93,60.059 160.99,168.262 176.75,342.43 7.99,88.34 -5.2,221.849 -113.52,356.249 45.57,-54.63 69.02,-128.62 62.2,-215.823 -17.69,-225.137 -230.6,-453.219 -475.56,-509.469 244.96,56.25 457.87,284.332 475.56,509.469 6.82,87.203 -16.63,161.193 -62.2,215.823 -28.64,31.99 -55.69,62.19 -110.56,98.3 -59.86,39.36 -118.87,56.87 -130.09,59.97 -132.15,36.61 -224.3,18.12 -304.19,-7.32 -78.12,-24.88 -170.47,-89.19 -219.58,-152.9 C 1049.95,1164.7 979.211,1072.9 968.344,926.813" /><path
               id="path122"
               style="fill:#ee2523;fill-opacity:1;fill-rule:nonzero;stroke:none"
               d="m 1431.22,480.578 c 244.96,56.25 457.87,284.332 475.56,509.469 6.82,87.203 -16.63,161.193 -62.2,215.823 -29.28,32.71 -33.05,36.91 -60.97,61.4 -31.35,24.85 -33.9,26.88 -57.12,41.69 l -9.53,5.82 c 62.36,-37.27 96.72,-121.1 87.36,-240.24 -17.67,-225.106 -184.72,-491.063 -373.1,-593.962" /><path
               id="path124"
               style="fill:#20428E;fill-opacity:1;fill-rule:nonzero;stroke:none"
               d="m 1431.22,480.578 c 188.38,102.899 355.43,368.856 373.1,593.962 9.36,119.14 -25,202.97 -87.36,240.24 -12.66,7.06 -29.67,16.2 -42.66,22.63 -31.09,13.64 -31.09,13.64 -48.05,19.57 -29.82,9.57 -29.82,9.57 -45.21,13.34 -28.77,6.36 -28.77,6.36 -43.61,8.63 -28.44,3.68 -28.44,3.68 -43.25,4.62 -29.17,1.2 -29.17,1.2 -44.2,0.81 -29.79,-1.5 -30.94,-1.56 -46.68,-3.48 l -23.81,-3.51 c -49.57,-8.79 -87.08,-84.38 -97.5,-217.21 -17.68,-225.121 49.15,-529.387 149.23,-679.602" /><path
               id="path126"
               style="fill:#ee2523;fill-opacity:1;fill-rule:nonzero;stroke:none"
               d="m 1431.22,480.578 c -100.08,150.215 -166.91,454.481 -149.23,679.602 10.42,132.83 47.93,208.42 97.5,217.21 -8.17,-1.61 -19.07,-3.61 -27.2,-5.45 -33.95,-8.77 -35.99,-9.3 -55.6,-16.19 -34.86,-13.57 -37.71,-14.68 -60.02,-25.92 -33.92,-18.79 -39.15,-21.67 -64.84,-39.8 -32.31,-25.15 -39.04,-30.39 -67.77,-59.21 -29.03,-32.69 -36.93,-42.02 -64.71,-84.26 -19.23,-34.39 -34.41,-61.56 -50.311,-111.46 -12.086,-45.42 -14.613,-54.877 -19.976,-100.069 -0.168,-1.859 -0.333,-3.722 -0.485,-5.59 -17.676,-225.117 189.472,-426.07 462.642,-448.863" /><path
               id="path128"
               style="fill:#20428E;fill-opacity:1;fill-rule:nonzero;stroke:none"
               d="m 1431.22,480.578 c -273.17,22.793 -480.318,223.746 -462.642,448.863 0.152,1.868 0.317,3.731 0.485,5.59 l -0.719,-8.218 c -2,-52.465 -2.09,-54.524 0.656,-85.711 6.422,-47.907 7.41,-55.262 18.488,-95.079 15.032,-44.019 17.742,-51.933 37.212,-90.523 22,-37.859 27.24,-46.855 57.19,-84.984 28.63,-31.993 33.04,-36.895 60.96,-61.391 31.35,-24.855 33.92,-26.883 57.12,-41.68 31.51,-18.488 32.74,-19.215 52.2,-28.465 31.09,-13.628 31.09,-13.628 48.07,-19.574 l 2.42,-0.804 c 33.51,-11.497 77.87,7.839 128.56,61.976" /><path
               id="path130"
               style="fill:#cc0130;fill-opacity:1;fill-rule:nonzero;stroke:none"
               d="m 1431.22,480.578 c -50.69,-54.137 -95.05,-73.473 -128.56,-61.976 12.75,-4.028 29.86,-9.063 42.77,-12.52 28.7,-6.348 28.7,-6.348 43.61,-8.629 27.91,-3.617 27.91,-3.617 43.23,-4.617 29.17,-1.191 29.17,-1.191 44.2,-0.797 30.37,1.516 30.94,1.527 46.68,3.461 32.1,4.754 33.35,4.934 50.98,8.98 33.94,8.743 35.97,9.266 55.6,16.172 l 16.95,6.383 c -59.8,-23.972 -135.66,-8.137 -215.46,53.543" /><path
               id="path132"
               style="fill:#20428E;fill-opacity:1;fill-rule:nonzero;stroke:none"
               d="m 1431.22,480.578 c 79.8,-61.68 155.66,-77.515 215.46,-53.543 13.02,5.629 30.33,13.301 43.08,19.551 33.93,18.769 39.15,21.66 64.84,39.793 32.32,25.137 39.05,30.391 67.79,59.211 29.02,32.687 36.93,42.019 64.72,84.265 19.23,34.375 34.4,61.555 50.3,111.485 11.77,44.152 14.94,56.031 20.69,108.281 1.94,50.285 2.18,56.75 -1.92,97.793 -7.59,47.609 -8.75,54.936 -20.83,94.586 l -11.21,30.84 c 17.75,-44.36 25.56,-93.574 21.44,-146.051 C 1927.9,701.672 1697.61,501.906 1431.22,480.578" /><path
               id="path134"
               style="fill:#cc0130;fill-opacity:1;fill-rule:nonzero;stroke:none"
               d="m 1906.78,990.047 c -17.69,-225.137 -230.6,-453.219 -475.56,-509.469 266.39,21.328 496.68,221.094 514.36,446.211 4.12,52.477 -3.69,101.691 -21.44,146.051 -8.02,17.94 -19.19,41.64 -28.38,59.02 -24.2,39.34 -27.32,44.39 -51.18,74.01 45.57,-54.63 69.02,-128.62 62.2,-215.823" /></g></g></g><path
         id="path136"
         style="fill:#cc0130;fill-opacity:1;fill-rule:nonzero;stroke:none"
         d="m 1716.96,1314.78 9.53,-5.82 c 31.4,-20.99 35.41,-23.69 57.12,-41.69 29.81,-27 36.03,-32.6 60.97,-61.4 -60.26,72.24 -159.16,110.65 -277.7,101.13 -4.32,5.16 -9.99,9.78 -16.65,13.72 65.71,23.42 123.08,20.15 166.73,-5.94" /><path
         id="path138"
         style="fill:#20428E;fill-opacity:1;fill-rule:nonzero;stroke:none"
         d="m 1379.49,1377.39 23.81,3.51 c 31.01,3.05 31.01,3.05 46.68,3.48 28.87,0.12 28.87,0.12 44.2,-0.81 23.43,-1.98 23.43,-1.98 43.25,-4.62 28.99,-5.06 28.99,-5.06 43.61,-8.63 29.33,-7.89 29.88,-8.05 45.21,-13.34 30.32,-11.4 31.51,-11.84 48.05,-19.57 12.94,-6.51 30.06,-15.48 42.66,-22.63 -43.65,26.09 -101.02,29.36 -166.73,5.94 -22.2,13.19 -55.27,18.99 -84.87,13.91 -30.5,33.6 -59.85,47.39 -85.87,42.76" /><path
         id="path140"
         style="fill:#cc0130;fill-opacity:1;fill-rule:nonzero;stroke:none"
         d="m 969.063,935.031 c 6.511,48.114 7.695,56.782 19.976,100.069 12.661,35.88 23.581,66.86 50.311,111.46 23.78,35.94 30.19,45.59 64.71,84.26 30.35,29.64 35.82,34.99 67.77,59.21 33.92,22.95 37.48,25.34 64.84,39.8 34.76,16.52 36.84,17.5 60.02,25.92 34.79,11.27 35.45,11.5 55.6,16.19 8.16,1.65 19.01,4.02 27.2,5.45 26.02,4.63 55.37,-9.16 85.87,-42.76 -2.16,-0.36 -4.27,-0.77 -6.36,-1.26 -26.92,-6.18 -43.07,-20.36 -44.57,-36.23 -235.26,-11.95 -426.395,-162.33 -445.367,-362.109" /><path
         id="path142"
         style="fill:#20428E;fill-opacity:1;fill-rule:nonzero;stroke:none"
         d="m 1302.66,418.602 -2.42,0.804 c -30.34,11.41 -31.52,11.832 -48.07,19.574 -30.96,15.598 -33.49,16.883 -52.2,28.465 -31.37,20.981 -35.4,23.68 -57.12,41.68 -29.79,26.996 -36.01,32.609 -60.96,61.391 -25.96,33.539 -32.93,42.558 -57.19,84.984 -19.7,40.641 -23.79,49.094 -37.212,90.523 -11.945,46.497 -13.789,53.637 -18.488,95.079 -2.766,51.097 -2.93,54.156 -0.656,85.711 l 0.719,8.218 c 18.972,199.779 210.107,350.159 445.367,362.109 -0.72,-7.59 1.9,-15.57 8.3,-23.24 8.02,-9.61 20.72,-17.27 35.64,-22.36 -108.98,-145.36 -203.45,-400.185 -219.35,-602.747 -10.44,-132.941 15.31,-213.648 63.64,-230.191" /><path
         id="path144"
         style="fill:#cc0130;fill-opacity:1;fill-rule:nonzero;stroke:none"
         d="m 1646.68,427.035 -16.95,-6.383 c -34.75,-11.269 -35.42,-11.48 -55.6,-16.172 -33.51,-6.812 -33.51,-6.812 -50.98,-8.98 -31.02,-3.051 -31.02,-3.051 -46.68,-3.461 -28.77,-0.137 -28.77,-0.137 -44.2,0.797 -21.49,1.816 -21.49,1.816 -43.23,4.617 -28.27,4.934 -29.38,5.113 -43.61,8.629 -12.91,3.469 -30.04,8.453 -42.77,12.52 -48.33,16.543 -74.08,97.25 -63.64,230.191 15.9,202.562 110.37,457.387 219.35,602.747 21.9,-7.49 48.57,-9.45 72.24,-4.02 5.1,1.17 9.81,2.62 14.12,4.32 143.4,-144.45 241.56,-398.57 225.68,-601.133 -9.37,-119.238 -56.38,-196.664 -123.73,-223.672" /><path
         id="path146"
         style="fill:#20428E;fill-opacity:1;fill-rule:nonzero;stroke:none"
         d="m 1924.14,1072.84 11.21,-30.84 c 12.78,-45.062 15.07,-53.18 20.83,-94.586 3.82,-48.676 4.42,-56.16 1.92,-97.793 -5.58,-47.051 -6.91,-58.223 -20.69,-108.281 -12.66,-35.899 -23.59,-66.863 -50.3,-111.485 -23.8,-35.925 -30.2,-45.605 -64.72,-84.265 -30.36,-29.649 -35.83,-35 -67.79,-59.211 -33.93,-22.938 -37.46,-25.352 -64.84,-39.793 -12.82,-6.102 -29.98,-14.074 -43.08,-19.551 67.35,27.008 114.36,104.434 123.73,223.672 15.88,202.563 -82.28,456.683 -225.68,601.143 24.46,9.68 35.56,27.28 28.45,44.86 167.92,-9.87 300.17,-96.99 350.96,-223.87" /><path
         id="path148"
         style="fill:#cc0130;fill-opacity:1;fill-rule:nonzero;stroke:none"
         d="m 1844.58,1205.87 c 27.52,-35.53 31.76,-41 51.18,-74.01 9.03,-17.47 20.54,-41 28.38,-59.02 -50.79,126.88 -183.04,214 -350.96,223.87 -1.39,3.45 -3.48,6.9 -6.3,10.29 118.54,9.52 217.44,-28.89 277.7,-101.13" /></g></g></svg>
